<svg fill="none" height="800" viewBox="0 0 800 800" width="800" xmlns="http://www.w3.org/2000/svg" xmlns:xlink="http://www.w3.org/1999/xlink"><clipPath id="a"><path d="m125 0h551v800h-551z"/></clipPath><g clip-path="url(#a)"><path d="m191.25 749.905c0 19.012-.749 28.845-2.378 28.845h-22.826c-1.629 0-18.546-9.832-18.546-28.845v-372.978c0-19.015 10.26-34.427 11.889-34.427h28.912c1.629 0 2.949 15.412 2.949 34.427z" fill="#ececec"/><path d="m584.412 193.209c0 .125.007.249.007.376v-.111c.001-.088-.007-.176-.007-.265zm-1.112-18.477c.099.857.168 1.731.254 2.591-.078-.86-.154-1.734-.254-2.591zm-1.647-10.573c.227 1.199.453 2.395.651 3.596-.194-1.206-.424-2.397-.651-3.596zm-14.296 26.232v-3.431c0-62.791-35.913-118.1435-87.407-150.7904 43.135 20.9297 78.045 57.3717 94.404 101.5924-25.929-70.2779-98.64-120.9817-176.84-120.9817-97.699 0-190.251 79.107-190.251 176.6947v239.479h42.456v-229.607c0-74.753 57.237-135.3479 132.068-135.3479 24.095 0 40.145 6.3152 59.635 17.3317 51.166 18.0642 87.834 36.7782 87.834 94.0692v24.54c0 8.131 4.462 15.322 11.311 19.788 14.924-.972 26.79-15.5 26.79-33.337zm16.676-7.508c.062.896.116 1.793.163 2.695-.047-.902-.105-1.799-.163-2.695zm-4.018-26.507c.315 1.322.593 2.654.885 3.986-.285-1.332-.57-2.666-.885-3.986z" fill="#ececec"/><path d="m249.719 203.347v229.715h19.394v-223.551c0-72.672 55.643-131.5851 128.4-131.5851 15.588 0 30.535 2.7209 44.409 7.6838l-.501-.2791c-19.49-11.0165-35.538-17.3317-59.635-17.3317-74.83 0-132.067 60.5951-132.067 135.3481zm334.477-17.77c-.047-.901-.101-1.798-.163-2.695-.125-1.856-.285-3.709-.479-5.559-.086-.86-.154-1.734-.254-2.592-.282-2.332-.614-4.658-.996-6.976-.198-1.201-.425-2.397-.651-3.596-.237-1.269-.488-2.534-.753-3.797-.292-1.332-.57-2.665-.885-3.986-.234-.958-.492-1.912-.74-2.867-.696-2.705-1.465-5.39-2.304-8.054-.201-.644-.393-1.284-.602-1.924-.556-1.694-1.139-3.378-1.749-5.054-.084-.24-.179-.477-.266-.715-16.359-44.2197-51.269-80.6629-94.404-101.5926 51.494 32.6469 87.407 87.9996 87.407 150.7906v3.431c0 17.836-11.866 32.364-26.789 33.337-.047.002-.094.012-.143.017 4.589 3.034 10.255 4.849 16.414 4.849 15.233 0 27.581-14.553 27.581-32.505v-2.504c0-.128-.007-.251-.007-.376-.01-2.545-.083-5.09-.217-7.632z" fill="#a7a7a7"/><path d="m561.796 233.402c-20.312 0-36.836-15.137-36.836-33.743v5.057c0-68.867-56.095-124.8948-125.043-124.8948-62.304 0-111.799 47.1138-117.686 112.0248-.441 4.844-4.729 8.407-9.574 7.973-1.153-.104-2.274-.433-3.299-.97s-1.934-1.27-2.675-2.158-1.3-1.913-1.645-3.016c-.345-1.104-.468-2.265-.364-3.416 6.732-74.195 63.609-128.0464 135.244-128.0464 78.67 0 142.672 63.9264 142.672 142.5034v-5.057c0 8.897 8.618 16.135 19.208 16.135 10.6 0 19.222-10.871 19.222-24.231v-3.023c0-14.948-2.199-29.848-6.532-44.286-.332-1.107-.443-2.269-.326-3.42.117-1.15.46-2.266 1.009-3.284s1.293-1.918 2.191-2.648c.897-.731 1.929-1.277 3.038-1.609 4.666-1.402 9.574 1.25 10.973 5.904 4.817 16.007 7.268 32.63 7.276 49.344v3.023c-.001 23.068-16.533 41.838-36.853 41.838z" fill="#475569"/><path d="m281.654 440.674h-76.969v-252.135c0-73.456 49.322-143.3426 122.734-173.9062 2.151-.8659 4.558-.8498 6.697.0448 2.14.8946 3.841 2.5956 4.733 4.7342.893 2.1385.905 4.5424.035 6.6902s-2.552 3.8666-4.682 4.7836c-66.923 27.8614-111.888 91.2174-111.888 157.6534v234.527h41.712v-182.554c.038-2.31.983-4.512 2.632-6.133 1.649-1.62 3.869-2.528 6.182-2.528s4.534.908 6.182 2.528c1.649 1.621 2.594 3.823 2.632 6.133zm236.885-381.7507c-1.948.0019-3.841-.644-5.381-1.8357-32.829-25.3309-73.048-39.2809-113.241-39.2809-8.655 0-17.324.6481-25.767 1.928-4.795.724-9.305-2.5761-10.037-7.3849-.35-2.3087.232-4.66187 1.618-6.54193 1.387-1.88006 3.464-3.13299 5.775-3.48319 9.404-1.418502 18.901-2.129722 28.411-2.127654 44.071 0 88.116 15.255474 124.018 42.953474 1.455 1.1238 2.522 2.6743 3.051 4.4342s.494 3.641-.101 5.3798-1.719 3.2482-3.216 4.3167c-1.496 1.0686-3.29 1.6428-5.13 1.6421zm43.09 46.2247c-1.463.001-2.903-.361-4.191-1.055-1.288-.693-2.382-1.696-3.185-2.918-.983-1.4981-1.962-2.9991-2.937-4.5029-5.472-8.4254-7.314-11.263-15.779-19.2586-1.692-1.6062-2.677-3.817-2.739-6.1476s.804-4.5906 2.408-6.2845c1.604-1.6938 3.814-2.6831 6.148-2.7509 2.333-.0679 4.597.7913 6.297 2.3891 9.995 9.4413 12.646 13.5249 18.456 22.471.865 1.3348 1.814 2.7957 2.881 4.4177.636.9664 1.074 2.0484 1.291 3.1842.217 1.1357.207 2.303-.028 3.4351-.235 1.1322-.691 2.2074-1.342 3.1634s-1.484 1.774-2.452 2.409c-1.432.945-3.111 1.449-4.828 1.448z" fill="#475569"/><path d="m664.898 753.454c0 19.657-14.699 35.598-32.83 35.598h-421.37c-18.133 0-32.836-15.94-32.836-35.598v-385.628c0-19.659 14.703-35.594 32.836-35.594h421.37c18.131 0 32.83 15.935 32.83 35.594z" fill="#fdd72c"/><path d="m629.262 332.232h-92.061c19.679 0 35.636 15.935 35.636 35.594v385.628c0 19.657-15.955 35.598-35.636 35.598h92.061c19.679 0 35.636-15.94 35.636-35.598v-385.628c0-19.659-15.956-35.594-35.636-35.594z" fill="#f97c21"/><g fill="#475569"><path d="m307 580.662c0 4.72 1.877 9.247 5.219 12.585 3.341 3.338 7.874 5.213 12.599 5.213 4.726 0 9.258-1.875 12.6-5.213 3.341-3.338 5.219-7.865 5.219-12.585s-1.878-9.247-5.219-12.585c-3.342-3.338-7.874-5.213-12.6-5.213-4.725 0-9.258 1.875-12.599 5.213-3.342 3.338-5.219 7.865-5.219 12.585z"/><path d="m479.246 580.662c0 4.72 1.877 9.247 5.218 12.585 3.342 3.338 7.874 5.213 12.6 5.213s9.258-1.875 12.599-5.213c3.342-3.338 5.219-7.865 5.219-12.585s-1.877-9.247-5.219-12.585c-3.341-3.338-7.873-5.213-12.599-5.213s-9.258 1.875-12.6 5.213c-3.341 3.338-5.218 7.865-5.218 12.585z"/><path d="m449.212 608.2c.293-2.633-1.886-4.79-4.542-4.79h-76.854c-2.65 0-4.826 2.157-4.538 4.79 2.386 21.593 20.711 38.391 42.97 38.391 22.256-.001 40.582-16.798 42.964-38.391z"/></g><path d="m420.185 633.507c0 3.893-6.496 7.058-14.508 7.058-8.015 0-14.514-3.164-14.514-7.058 0-3.898 6.499-7.058 14.514-7.058 8.012.001 14.508 3.16 14.508 7.058z" fill="#fd631f"/><path d="m611.443 800.371h-421.702c-35.725 0-64.79-29.031-64.79-64.714v-350.033c0-35.683 29.065-64.712 64.79-64.712h421.702c35.724 0 64.787 29.029 64.787 64.712v149.791c0 6.252-5.074 11.32-11.333 11.32-6.26 0-11.334-5.068-11.334-11.32v-149.791c0-23.2-18.895-42.073-42.121-42.073h-421.701c-23.228 0-42.124 18.873-42.124 42.073v350.033c0 23.2 18.896 42.075 42.124 42.075h421.702c23.227 0 42.122-18.875 42.122-42.075v-51.923c0-6.252 5.073-11.32 11.333-11.32 6.259 0 11.333 5.068 11.333 11.32v51.923c-.001 35.683-29.063 64.714-64.788 64.714z" fill="#475569"/><path d="m664.898 647.59c-3.006 0-5.889-1.193-8.014-3.316s-3.319-5.002-3.319-8.005v-51.907c0-6.253 5.073-11.321 11.333-11.321 6.259 0 11.333 5.068 11.333 11.321v51.909c-.001 6.252-5.074 11.319-11.333 11.319z" fill="#475569"/></g></svg>