<svg fill="none" height="800" viewBox="0 0 800 800" width="800" xmlns="http://www.w3.org/2000/svg" xmlns:xlink="http://www.w3.org/1999/xlink"><clipPath id="a"><path d="m125 0h551v800h-551z"/></clipPath><g clip-path="url(#a)"><path d="m584.412 193.209c0 .125.007.249.007.376v-.111c.001-.088-.007-.176-.007-.265zm-1.112-18.477c.098.857.167 1.731.254 2.591-.078-.86-.154-1.734-.254-2.591zm-1.647-10.573c.227 1.199.452 2.395.651 3.596-.194-1.206-.424-2.397-.651-3.596zm-12.834 129.224-1.462-106.423c0-62.791-35.913-118.1435-87.408-150.7904 43.136 20.9297 78.046 57.3717 94.405 101.5924-25.929-70.2779-98.64-120.9817-176.84-120.9817-97.7 0-190.251 79.1071-190.251 176.6947v239.479h42.456v-229.607c0-74.753 57.236-135.3479 132.068-135.3479 24.095 0 40.145 6.3152 59.635 17.3317 51.165 18.0642 87.834 66.7782 87.834 124.0692v97.533c0 8.131 4.461 15.322 11.311 19.787 14.924-.971 28.252-15.499 28.252-33.337zm15.214-110.5c.062.896.116 1.793.163 2.695-.047-.902-.106-1.799-.163-2.695zm-4.018-26.507c.314 1.322.593 2.654.885 3.986-.285-1.332-.571-2.666-.885-3.986z" fill="#ececec"/><path d="m249.719 203.347v229.715h19.394v-223.551c0-72.672 55.643-131.5851 128.4-131.5851 15.587 0 30.534 2.7209 44.409 7.6838l-.501-.2791c-19.49-11.0165-35.539-17.3318-59.635-17.3318-74.83 0-132.067 60.5952-132.067 135.3482zm334.477-17.77c-.047-.901-.101-1.798-.163-2.695-.126-1.856-.285-3.709-.479-5.559-.086-.86-.154-1.734-.254-2.592-.282-2.332-.614-4.658-.996-6.976-.199-1.201-.425-2.397-.651-3.596-.237-1.269-.488-2.534-.753-3.797-.292-1.332-.57-2.665-.885-3.986-.234-.958-.492-1.912-.74-2.867-.697-2.705-1.465-5.39-2.304-8.054-.201-.644-.393-1.284-.602-1.924-.556-1.694-1.139-3.378-1.749-5.054-.084-.24-.179-.477-.266-.715-16.359-44.2197-51.269-80.6629-94.404-101.5926 51.494 32.6469 87.407 87.9996 87.407 150.7906v109.343c0 17.836-11.866 22.145-26.79 23.118-.046.002-.093.013-.142.017 4.588 3.034 10.255 15.068 16.414 15.068 15.233 0 27.581-14.553 27.581-32.504v-108.417c0-.128-.007-.251-.007-.376-.011-2.545-.083-5.09-.217-7.632z" fill="#a7a7a7"/><path d="m561.796 350.994c-20.312 0-36.836-15.138-36.836-33.744v-112.534c0-68.867-56.096-124.8946-125.043-124.8946-62.304 0-111.799 47.1146-117.686 112.0246-.441 4.844-4.729 8.407-9.574 7.974-1.153-.104-2.274-.434-3.299-.971s-1.934-1.27-2.675-2.158c-.742-.888-1.3-1.913-1.645-3.016-.345-1.104-.468-2.264-.364-3.416 6.732-74.195 63.609-128.0461 135.244-128.0461 78.67 0 142.672 63.9261 142.672 142.5031v112.534c0 8.898 8.618 16.135 19.207 16.135 10.601 0 19.223-10.87 19.223-24.231v-120.614c0-14.948-2.199-29.847-6.532-44.285-.333-1.108-.443-2.27-.326-3.42.117-1.151.46-2.267 1.009-3.285.549-1.017 1.293-1.917 2.191-2.648.897-.73 1.929-1.277 3.038-1.609 4.666-1.401 9.574 1.25 10.973 5.904 4.817 16.007 7.268 32.63 7.276 49.345v120.614c-.002 23.067-16.533 41.838-36.853 41.838z" fill="#475569"/><path d="m281.654 440.674h-76.969v-252.135c0-73.456 49.322-143.3429 122.733-173.9065 2.152-.8659 4.558-.8498 6.698.0448s3.84 2.5956 4.733 4.7342.905 4.5424.035 6.6902c-.87 2.1479-2.552 3.8666-4.683 4.7836-66.922 27.8614-111.887 91.2177-111.887 157.6537v234.527h41.712v-182.554c.038-2.31.983-4.513 2.632-6.133s3.869-2.528 6.182-2.528 4.533.908 6.182 2.528 2.594 3.823 2.632 6.133zm236.885-381.7509c-1.948.0018-3.841-.644-5.381-1.8358-32.83-25.3308-73.048-39.2808-113.241-39.2808-8.655 0-17.324.6481-25.767 1.928-4.795.724-9.305-2.5761-10.037-7.3849-.351-2.3087.231-4.66192 1.618-6.54198s3.464-3.13299 5.775-3.48319c9.404-1.418496 18.9-2.129716 28.411-2.127648 44.071 0 88.116 15.255518 124.018 42.953418 1.455 1.1239 2.522 2.6744 3.051 4.4342.529 1.7599.494 3.641-.101 5.3798s-1.719 3.2482-3.216 4.3168c-1.496 1.0685-3.29 1.6427-5.13 1.6421zm43.09 46.2239c-1.463.002-2.904-.361-4.191-1.054-1.288-.694-2.382-1.697-3.185-2.918-.983-1.4984-1.962-2.9993-2.937-4.5032-5.472-8.4253-7.314-11.263-15.779-19.2586-1.692-1.6062-2.677-3.817-2.739-6.1476-.062-2.3305.804-4.5906 2.408-6.2844 1.603-1.6938 3.814-2.6832 6.147-2.751s4.598.7914 6.298 2.3891c9.995 9.4413 12.646 13.5249 18.455 22.4711.866 1.3347 1.815 2.7956 2.882 4.4176.636.9665 1.074 2.0485 1.291 3.1842.217 1.1358.207 2.3031-.028 3.4352s-.691 2.2066-1.342 3.1626-1.484 1.775-2.452 2.409c-1.432.946-3.111 1.45-4.828 1.448z" fill="#475569"/><path d="m664.898 753.454c0 19.657-14.699 35.598-32.83 35.598h-421.37c-18.133 0-32.836-15.94-32.836-35.598v-385.628c0-19.659 14.703-35.594 32.836-35.594h421.37c18.131 0 32.83 15.935 32.83 35.594z" fill="#fdd72c"/><path d="m629.262 332.232h-92.061c19.68 0 35.637 15.935 35.637 35.594v385.628c0 19.657-15.956 35.598-35.637 35.598h92.061c19.679 0 35.636-15.94 35.636-35.598v-385.628c0-19.659-15.955-35.594-35.636-35.594z" fill="#f97c21"/><g fill="#475569"><path d="m307 580.662c0 4.72 1.877 9.247 5.219 12.585 3.341 3.338 7.874 5 12.599 5 4.726 0 9.258-1.662 12.6-5 3.341-3.338 5.219-7.865 5.219-12.585s-1.878-9.247-5.219-12.585c-3.342-3.338-7.874-5.213-12.6-5.213-4.725 0-9.258 1.875-12.599 5.213-3.342 3.338-5.219 7.865-5.219 12.585z"/><path d="m479.246 580.662c0 4.72 1.877 9.247 5.218 12.585 3.342 3.338 7.874 5 12.6 5s9.258-1.662 12.599-5c3.342-3.338 5.219-7.865 5.219-12.585s-1.877-9.247-5.219-12.585c-3.341-3.338-7.873-5.213-12.599-5.213s-9.258 1.875-12.6 5.213c-3.341 3.338-5.218 7.865-5.218 12.585z"/><path d="m363.278 641.801c-.292 2.633 1.886 4.79 4.542 4.79h76.854c2.651 0 4.826-2.157 4.539-4.79-2.386-21.593-20.712-38.391-42.971-38.391-22.256.001-40.581 16.798-42.964 38.391z"/></g><path d="m420.185 636.426c0 3.893-6.496 4.138-14.508 4.138-8.015 0-14.514-.243-14.514-4.138 0-3.898 6.499-7.058 14.514-7.058 8.012.001 14.508 3.16 14.508 7.058z" fill="#fd631f"/><g fill="#475569"><path d="m611.443 800.371h-421.702c-35.724 0-64.789-29.031-64.789-64.714v-350.033c0-35.683 29.065-64.712 64.789-64.712h421.702c35.724 0 64.787 29.029 64.787 64.712v149.791c0 6.252-5.074 11.321-11.333 11.321s-11.333-5.069-11.333-11.321v-149.791c0-23.199-18.895-42.073-42.122-42.073h-421.701c-23.228 0-42.124 18.874-42.124 42.073v350.033c0 23.2 18.896 42.075 42.124 42.075h421.702c23.227 0 42.122-18.875 42.122-42.075v-51.923c0-6.252 5.074-11.32 11.333-11.32s11.333 5.068 11.333 11.32v51.923c-.001 35.683-29.062 64.714-64.788 64.714z"/><path d="m664.898 647.59c-3.006 0-5.889-1.193-8.014-3.316-2.126-2.123-3.32-5.002-3.32-8.005v-51.907c0-6.252 5.074-11.32 11.334-11.32 6.259 0 11.333 5.068 11.333 11.32v51.909c-.001 6.252-5.074 11.319-11.333 11.319z"/></g></g></svg>